# xmcd
#
# Track frame offsets: 
#        150
#        20692
#        37934
#        62577
#        80629
#        111769
#        165193
#        192696
#        244127
#        263383
#        297267
#        332868
#
# Disc length: 4777 seconds
#
# Revision: 0
# Processed by: cddbd v1.5.2PL0 Copyright (c) Steve Scherf et al.
# Submitted via: ExactAudioCopyFreeDBPlugin 1.0
#
DISCID=a112a70c
DTITLE=Johnny Lang - Live at the Ryman
DYEAR=2009
DGENRE=Blues
TTITLE0=One Person At A Time
TTITLE1=Bump In The Road
TTITLE2=Turn Around
TTITLE3=Give Me Up Again
TTITLE4=A Quitter Never Wins
TTITLE5=Red Light
TTITLE6=Don't Stop (For Anything)
TTITLE7=Livin' For The City
TTITLE8=Thankful
TTITLE9=I Am
TTITLE10=Breakin' Me
TTITLE11=Lie To Me
EXTD=
EXTT0=
EXTT1=
EXTT2=
EXTT3=
EXTT4=
EXTT5=
EXTT6=
EXTT7=
EXTT8=
EXTT9=
EXTT10=
EXTT11=
PLAYORDER=
